<svg xmlns="http://www.w3.org/2000/svg" width="20" height="20" viewBox="0 0 20 20"><path d="M14.48 11.06L7.41 3.99l1.5-1.5q.25-.28.85-.345t1.34.11 1.32.555q.45.3 1.265.97t1.645 1.13q.43.24.73.38t.765.305.875.23.955.06 1.125-.125zm-.71.71L6.7 4.7 4.93 6.47q-.29.29-.29.705t.29.705l1.06 1.06q.29.29.29.71t-.29.71q-.27.27-.615.54t-.86.63-.735.52q-.66.49-1.01.84-.52.52-.92 1.085t-.64 1.13-.205 1.085.395.88.88.395 1.085-.205 1.13-.635 1.085-.915q.34-.34.85-1.02.13-.17.51-.72t.64-.885.54-.605q.29-.29.705-.29t.705.29l1.06 1.06q.29.29.705.29t.705-.29z"/></svg>