<svg xmlns="http://www.w3.org/2000/svg" width="20" height="20" viewBox="0 0 20 20"><path d="M18 16V4q0-.41-.295-.705T17 3H4q-.41 0-.705.295T3 4v12q0 .41.295.705T4 17h13q.41 0 .705-.295T18 16zM8 11h1q.41 0 .705.295T10 12t-.295.705T9 13H8v1.5q0 .21-.145.355T7.5 15t-.355-.145T7 14.5V13H6q-.41 0-.705-.295T5 12t.295-.705T6 11h1V5.5q0-.21.145-.355T7.5 5t.355.145T8 5.5V11zm5-2h-1q-.41 0-.705-.295T11 8t.295-.705T12 7h1V5.5q0-.21.145-.355T13.5 5t.355.145T14 5.5V7h1q.41 0 .705.295T16 8t-.295.705T15 9h-1v5.5q0 .21-.145.355T13.5 15t-.355-.145T13 14.5V9z"/></svg>