<svg xmlns="http://www.w3.org/2000/svg" width="20" height="20" viewBox="0 0 20 20"><path d="M0 18h10v-.26q2.41.63 4.76-.24 1.22-.45 2.225-1.25t1.675-1.83 1.025-2.21T20 9.745t-.49-2.505q-.42-1.15-1.16-2.11t-1.675-1.615-2.045-1.06-2.27-.44T10 2.26V2H0v16zM9 3v14H1V3h8zm5.45 8.22q-.51 1.01-1.585 1.37t-2.085-.14q-.46-.22-.78-.59V8.13q.61-.65 1.495-.82t1.725.24q1.01.51 1.37 1.585t-.14 2.085zm-2.75-.82q.16.12.365.09t.335-.19q.12-.16.09-.365T12.3 9.6q-.17-.13-.37-.1t-.33.2q-.12.16-.09.365t.19.335zm3.01 3.67q-.86.57-1.875.75t-1.955-.06q-.2-.05-.31-.23t-.06-.38.23-.305.39-.055l.17.04q1.55.27 2.86-.59.72-.49 1.14-1.18.11-.17.31-.215t.38.055q.17.11.22.315t-.06.375q-.57.9-1.44 1.48zm1.05 1.57q-1.09.73-2.34.995t-2.5.065q-.21-.04-.33-.215t-.08-.385q.04-.2.215-.315t.395-.075l.22.04q2.11.24 3.87-.94 1.01-.67 1.7-1.74.1-.18.305-.225t.375.065q.18.1.225.305t-.065.385q-.76 1.22-1.99 2.04z" fill="#444"/></svg>