<svg xmlns="http://www.w3.org/2000/svg" width="20" height="20" viewBox="0 0 20 20"><path d="M4.46 5.16L5 7.46l-.54 2.29 2.01 1.24L7.7 13l2.3-.54 2.3.54 1.23-2.01 2.01-1.24L15 7.46l.54-2.3-2-1.24-1.24-2.01-2.3.55-2.29-.54-1.25 2zm5.55 6.34q-1.67 0-2.84-1.17T6 7.49q0-1.65 1.175-2.82T10.01 3.5q1.65 0 2.82 1.17T14 7.49q0 1.66-1.17 2.835T10.01 11.5zm-.02-1q-1.24 0-2.115-.875T7 7.5q0-1.24.875-2.12T9.99 4.5t2.125.88T13 7.5t-.88 2.12-2.13.88zm3.84 1.1l-1.28 2.24-2.08-.47L13 19.2l1.4-2.2h2.5zm-7.7.07l1.25 2.25 2.13-.51L7 19.2 5.6 17H3.1z"/></svg>