<svg xmlns="http://www.w3.org/2000/svg" width="20" height="20" viewBox="0 0 20 20"><path d="M13.65 2.88q1.45.74 2.48 1.98t1.49 2.685.35 3.05-.85 3.055-1.98 2.475-2.68 1.49-3.05.355-3.06-.85q-1.38-.71-2.37-1.85t-1.49-2.55l1.64-1.03q.34 1.2 1.135 2.18t1.945 1.58q1.11.57 2.34.655t2.33-.27 2.045-1.145 1.515-1.9.66-2.34-.27-2.33-1.145-2.05-1.895-1.52-2.34-.655-2.33.27T6.075 5.31 4.56 7.21l1.88.97-4.95 3.08-.39-5.82 1.78.91q.74-1.45 1.985-2.48t2.69-1.49 3.05-.345 3.045.845zm-4.36 7.83Q9 10.42 9 10q0-.04.02-.1t.02-.09h-.01L10 5l.97 4.81L14 13l-4.5-2.12.02-.02q-.13-.07-.23-.15z"/></svg>