<svg xmlns="http://www.w3.org/2000/svg" width="20" height="20" viewBox="0 0 20 20"><path d="M8.75 5.77q0-.39-.18-.92t-.435-1.01-.515-.905-.44-.675L7 2q-.07.1-.19.27t-.42.655-.53.93-.42.985-.19.93q0 .98.43 1.355T7 7.5t1.32-.375.43-1.355zm6 0q0-.39-.18-.92t-.435-1.01-.515-.905-.44-.675L13 2q-.07.1-.19.27t-.42.655-.53.93-.42.985-.19.93q0 .98.43 1.355T13 7.5t1.32-.375.43-1.355zM9 17V9q0-.41-.295-.705T8 8H6q-.41 0-.705.295T5 9v8q0 .41.295.705T6 18h2q.41 0 .705-.295T9 17zm6 0V9q0-.41-.295-.705T14 8h-2q-.41 0-.705.295T11 9v8q0 .41.295.705T12 18h2q.41 0 .705-.295T15 17zm-9-6l2-1v2l-2 1v-2zm6 0l2-1v2l-2 1v-2zm-6 3l2-1v2l-2 1v-2zm6 0l2-1v2l-2 1v-2z"/></svg>