<svg xmlns="http://www.w3.org/2000/svg" width="20" height="20" viewBox="0 0 20 20"><path d="M10.98 6.78L15.5 15q-.48.96-1.42 1.66t-1.99 1.02T10 18t-2.09-.32-1.99-1.02T4.5 15L9 6.82q-.57-.93-1.68-1.46t-2.61-.57l2.46-2.92q1.99 1.41 2.97 3.31.51-.8 1.095-1.31t1.605-.81l1.83 2.86q-1.92-.46-3.69.86zM8.17 10.4l-.93 1.69q.71.16 1.54.16 1.99 0 3.55-.95l-1.01-1.82q-1.36.83-3.15.92zm.86 5.38q1.47 0 2.72-.5t2.02-1.36l-.98-1.76q-.77.86-2.02 1.365t-2.72.505q-.87 0-1.76-.21l-.63 1.15q1.52.81 3.37.81z"/></svg>