<svg xmlns="http://www.w3.org/2000/svg" width="20" height="20" viewBox="0 0 20 20"><path d="M13.5 7h-7q-.62 0-1.06-.44T5 5.5t.44-1.06T6.5 4h1.59Q8 3.71 8 3.5q0-.62.44-1.06T9.5 2h1q.62 0 1.06.44T12 3.5q0 .21-.09.5h1.59q.62 0 1.06.44T15 5.5t-.44 1.06T13.5 7zM4 8h12q.41 0 .705.295T17 9t-.295.705T16 10H4q-.41 0-.705-.295T3 9t.295-.705T4 8zm1 3h10q.41 0 .705.295T16 12t-.295.705T15 13H5q-.41 0-.705-.295T4 12t.295-.705T5 11zm2 3h6q.41 0 .705.295T14 15t-.295.705T13 16h-1.09q.09.29.09.5 0 .62-.44 1.06T10.5 18h-1q-.62 0-1.06-.44T8 16.5q0-.21.09-.5H7q-.41 0-.705-.295T6 15t.295-.705T7 14z"/></svg>