<svg xmlns="http://www.w3.org/2000/svg" width="20" height="20" viewBox="0 0 20 20"><path d="M10 0q1.63 0 3.155.505t2.755 1.43 2.155 2.155 1.43 2.755T20 10t-.505 3.155-1.43 2.755-2.155 2.155-2.755 1.43T10 20t-3.155-.505-2.755-1.43-2.155-2.155-1.43-2.755T0 10t.505-3.155 1.43-2.755T4.09 1.935 6.845.505 10 0zm0 .5q-1.93 0-3.69.75T3.275 3.275 1.25 6.31.5 10t.75 3.69 2.025 3.035T6.31 18.75t3.69.75 3.69-.75 3.035-2.025 2.025-3.035.75-3.69-.75-3.69-2.025-3.035T13.69 1.25 10 .5zm0 1q1.73 0 3.305.67t2.715 1.81 1.81 2.715T18.5 10t-.67 3.305-1.81 2.715-2.715 1.81T10 18.5t-3.305-.67-2.715-1.81-1.81-2.715T1.5 10t.67-3.305T3.98 3.98t2.715-1.81T10 1.5zm1.8 1.71q-.83 0-1.55.45 1.18.28 1.955 1.24t.775 2.21q0 1-.55 1.87.99-.22 1.64-1.015t.65-1.835q0-1.21-.855-2.065T11.8 3.21zm-2.38 1q-1.21 0-2.065.86T6.5 7.14t.855 2.065 2.065.855 2.07-.855.86-2.065q0-1.22-.855-2.075T9.42 4.21zm4.25 5.01l-.51.59q.66.19 1.15.635t.725.94.38.96.165.775l.03.3h1.28q0-.76-.11-1.385t-.295-1.045-.43-.75-.51-.51-.53-.305-.51-.165-.43-.055-.295-.005zm-2.1.8l-2.12 2.09-2.12-2.09q-.68.04-1.23.23t-.905.485-.625.67-.41.78-.22.81-.095.765-.005.635.03.445l.02.16h11.08q.1-1.02-.04-1.84t-.43-1.325-.67-.88-.775-.545-.73-.27-.545-.11z"/></svg>