<svg xmlns="http://www.w3.org/2000/svg" width="20" height="20" viewBox="0 0 20 20"><path d="M10 2q1.62 0 3.105.635T15.66 4.34t1.705 2.555T18 10t-.635 3.105-1.705 2.555-2.555 1.705T10 18t-3.105-.635T4.34 15.66t-1.705-2.555T2 10t.635-3.105T4.34 4.34t2.555-1.705T10 2zm0 15.5q1.53 0 2.915-.595t2.39-1.6 1.6-2.39T17.5 10t-.595-2.915-1.6-2.39-2.39-1.6T10 2.5t-2.915.595-2.39 1.6-1.6 2.39T2.5 10q0 2.23 1.22 4.1.41.61.95 1.17 1.04 1.05 2.42 1.64t2.91.59zm0-14.24q1.37 0 2.62.535t2.15 1.435 1.435 2.15.535 2.62-.535 2.62-1.435 2.15-2.15 1.435-2.62.535q-2.06 0-3.74-1.13.78-.04 1.51-.42t1.26-.99q.2.58.8 1t1.51.42q1.3 0 2.405-.88t1.365-2.12q.29-1.27-.28-2.13t-1.82-.86q-.45 0-.96.21t-.9.52l1.04-4.79q.02-.14-.035-.215t-.185-.035q-.56.15-2.27.32-.18.02-.245.17t.02.29.265.13q.22-.01.345.01t.205.105.1.2-.01.345-.085.5-.145.7q-.01.03-.01.04l-.54 2.43q-.57-.93-1.86-.93-.46 0-.965.21t-.895.52q1-4.61 1.03-4.79.03-.13-.025-.21T6.7 5.32q-.42.11-1.79.26.94-1.09 2.265-1.705T10 3.26zM4.41 6.23h.06q.26-.01.395.03t.205.155.055.325-.08.545-.175.815q-.01.02-.01.03l-1.01 4.63q-.59-1.3-.59-2.76 0-2.07 1.15-3.77zm4.12 6.39q-.23 1.04-.825 1.72t-1.435.68q-.55 0-.89-.41t-.17-1.16l.34-1.67q.15-.64.695-1.07t1.145-.43q.82 0 1.095.65t.045 1.69zm5.27 0q-.22 1.04-.82 1.72t-1.44.68q-.55 0-.89-.41t-.17-1.16l.35-1.67q.15-.64.69-1.07t1.14-.43q.82 0 1.095.65t.045 1.69z"/></svg>