<svg xmlns="http://www.w3.org/2000/svg" width="20" height="20" viewBox="0 0 20 20"><path d="M15.45 6.25q.89.46 1.275 1.3t.225 1.81-.8 1.87q-.59.83-1.595 1.345t-1.865.435L10.05 18H9l-2.65-4.99q-.85.12-1.895-.4T2.8 11.22q-.64-.9-.8-1.87t.23-1.81 1.28-1.29q.68-.34 1.43-.31-.02.62.07 1.21.2 1.29.995 2.52t1.865 1.85q-.3.86-.88 1.25L9 16.58v-5.66q-1.02-.28-1.915-1.44T6 7q-.2-1.32.16-2.46T7.4 2.7 9.5 2t2.1.7 1.24 1.84T13 7q-.19 1.32-1.085 2.48T10 10.92v5.77l2.07-3.84q-.63-.33-.99-1.3 1.09-.61 1.9-1.855t1.01-2.545q.09-.59.07-1.22.73-.02 1.39.32z"/></svg>