<svg xmlns="http://www.w3.org/2000/svg" width="20" height="20" viewBox="0 0 20 20"><path d="M15.82 12.25q.4 0 .74-.07.33-.07.73-.2v.84q-.7.26-1.58.26-1.31 0-2.01-.79-.59-.67-.68-1.79h-.94q.18.32.18.79 0 .8-.55 1.26-.57.45-1.56.45H8v-2.5H6.59l.93 2.5H6.49l-.59-1.67H3.62L3.04 13H2l.93-2.5H2v-1h1.31l.93-2.49H5.3l.92 2.49H8V7h1.77q1.15 0 1.77.41.55.36.55 1.13 0 .52-.27.87l-.08.09h1.29q.08-.62.31-1.1.36-.71.98-1.06.64-.37 1.51-.37.93 0 1.69.38l-.35.81q-.26-.13-.64-.25-.35-.11-.71-.11-.83 0-1.31.59-.35.44-.44 1.11H17v1h-2.95q.09.77.44 1.19.45.56 1.33.56zM4.44 8.96l-.18.54h1.03l-.21-.61q-.02-.05-.075-.22t-.095-.29q-.12-.41-.14-.51-.14.59-.33 1.09zm4.53-1.09V9.5h1.19q.39-.03.64-.18.28-.19.28-.66 0-.42-.3-.61-.3-.18-.97-.18h-.84zm-3.33 2.64v-.01H3.91v.01h1.73zm5.28.01l-.03-.02H8.97v1.68h1.04q.6 0 .92-.23.31-.24.31-.74 0-.46-.32-.69z"/></svg>