<svg xmlns="http://www.w3.org/2000/svg" width="20" height="20" viewBox="0 0 20 20"><path d="M8.54 12.74q0-1.3-.72-2.22-.5-.63-1.365-.82T4.86 9.67q-.25-1.43.78-3.035T8.28 4.22L6.65 1.94q-.98.47-1.885 1.14T3.07 4.65 1.735 6.575.94 8.845.85 11.37q.26 2.11 1.395 3.37T5.08 16q1.51 0 2.48-.88.98-.88.98-2.38zm9.43 0q0-1.3-.72-2.22-.5-.63-1.365-.82t-1.595-.03q-.25-1.43.78-3.035t2.64-2.415l-1.63-2.28q-.98.47-1.885 1.14T12.5 4.65t-1.335 1.925-.795 2.27-.09 2.525q.26 2.11 1.395 3.37T14.51 16q1.51 0 2.48-.88.98-.88.98-2.38z"/></svg>