<svg xmlns="http://www.w3.org/2000/svg" width="20" height="20" viewBox="0 0 20 20"><path d="M10 1q2.05 0 3.62.335t2.575.91 1.645 1.42.9 1.775T19 7.5t-.26 2.06-.9 1.775-1.645 1.42-2.575.91T10 14t-3.62-.335-2.575-.91-1.645-1.42-.9-1.775T1 7.5t.26-2.06.9-1.775 1.645-1.42 2.575-.91T10 1zM5.5 9q.62 0 1.06-.44T7 7.5t-.44-1.06T5.5 6t-1.06.44T4 7.5t.44 1.06T5.5 9zM10 9q.62 0 1.06-.44t.44-1.06-.44-1.06T10 6t-1.06.44T8.5 7.5t.44 1.06T10 9zm4.5 0q.62 0 1.06-.44T16 7.5t-.44-1.06T14.5 6t-1.06.44T13 7.5t.44 1.06T14.5 9zM6 14.5q.62 0 1.06.44T7.5 16t-.44 1.06T6 17.5t-1.06-.44T4.5 16t.44-1.06T6 14.5zm-3 2q.41 0 .705.295T4 17.5t-.295.705T3 18.5t-.705-.295T2 17.5t.295-.705T3 16.5z"/></svg>