<svg xmlns="http://www.w3.org/2000/svg" width="20" height="20" viewBox="0 0 20 20"><path d="M9.25 11.64q.88.62 1.23 1.28t.35 1.65q0 .62-.3 1.195t-.845 1.04-1.4.74-1.895.275q-1.26 0-2.31-.315t-1.685-.93-.635-1.405q0-1.28 1.3-2.265t3.14-.985q.14 0 .4-.005t.38-.005q-.61-.61-.61-1.26 0-.43.23-.86-.08.01-.22-.005t-.2-.015q-1.51 0-2.475-.97T2.74 6.43q0-.87.555-1.665t1.47-1.28T6.67 3h4.52l-1.01 1H8.74q.83.87 1.03 1.16.43.63.43 1.44 0 1.35-1.28 2.34-.53.42-.695.67t-.165.62q0 .28.395.705t.795.705zM6.83 9.37q.88.03 1.39-.76t.36-1.94q-.15-1.14-.87-1.95t-1.6-.84q-.88-.02-1.39.75t-.36 1.91q.15 1.15.875 1.98t1.595.85zM17 10v1h-2v2h-1v-2h-2v-1h2V8h1v2h2zM6.38 17.1q1.72 0 2.5-.635t.78-1.705q0-.22-.05-.47-.04-.16-.105-.295t-.18-.275-.205-.235-.28-.24-.295-.215-.365-.25-.38-.26q-.56-.18-1.12-.18-1.31-.02-2.3.685t-.99 1.665q0 1 .855 1.705t2.135.705z"/></svg>