<svg xmlns="http://www.w3.org/2000/svg" width="20" height="20" viewBox="0 0 20 20"><path d="M2 19h16q.41 0 .705-.295T19 18V2q0-.41-.295-.705T18 1H2q-.41 0-.705.295T1 2v16q0 .41.295.705T2 19zM4 3q.41 0 .705.295T5 4t-.295.705T4 5t-.705-.295T3 4t.295-.705T4 3zm13 0v2H6V3h11zM4 7q.41 0 .705.295T5 8t-.295.705T4 9t-.705-.295T3 8t.295-.705T4 7zm13 0v2H6V7h11zM4 11q.41 0 .705.295T5 12t-.295.705T4 13t-.705-.295T3 12t.295-.705T4 11zm13 0v2H6v-2h11zM4 15q.41 0 .705.295T5 16t-.295.705T4 17t-.705-.295T3 16t.295-.705T4 15zm13 0v2H6v-2h11z"/></svg>