<svg xmlns="http://www.w3.org/2000/svg" width="20" height="20" viewBox="0 0 20 20"><path d="M12 5V2q0-.41-.295-.705T11 1H9q-.41 0-.705.295T8 2v3q0 .41.295.705T9 6h2q.41 0 .705-.295T12 5zm-2-3q.41 0 .705.295T11 3t-.295.705T10 4t-.705-.295T9 3t.295-.705T10 2zm8 13V7q0-.82-.59-1.41T16 5h-3v.33q0 .69-.49 1.18T11.33 7H8.67q-.69 0-1.18-.49T7 5.33V5H4q-.82 0-1.41.59T2 7v8q0 .82.59 1.41T4 17h12q.82 0 1.41-.59T18 15zm-1-6v6H3V9h14zm-8 2q0-.41-.145-.705T8.5 10t-.355.295T8 11t.145.705T8.5 12t.355-.295T9 11zm3 0q0-.41-.145-.705T11.5 10t-.355.295T11 11t.145.705.355.295.355-.295T12 11zm-5.96 1.21Q7.55 13 10 13t3.96-.79q-.16.76-1.29 1.275T10 14t-2.67-.515-1.29-1.275z"/></svg>