<svg xmlns="http://www.w3.org/2000/svg" width="20" height="20" viewBox="0 0 20 20"><path d="M18 13h1q.41 0 .705.295t.295.715v2.98q0 .42-.295.715T19 18h-4q-.41 0-.705-.295T14 16.99v-2.98q0-.42.295-.715T15 13h1v-2h-5v2h1q.41 0 .705.295t.295.715v2.98q0 .42-.295.715T12 18H8q-.41 0-.705-.295T7 16.99v-2.98q0-.42.295-.715T8 13h1v-2H4v2h1q.41 0 .705.295T6 14.01v2.98q0 .42-.295.715T5 18H1q-.41 0-.705-.295T0 16.99v-2.98q0-.42.295-.715T1 13h1v-2q0-.82.59-1.41T4 9h5V7H8q-.41 0-.705-.295T7 5.99V3.01q0-.42.295-.715T8 2h4q.41 0 .705.295T13 3.01v2.98q0 .42-.295.715T12 7h-1v2h5q.82 0 1.41.59T18 11v2z"/></svg>