<svg xmlns="http://www.w3.org/2000/svg" width="20" height="20" viewBox="0 0 20 20"><path d="M12.06 6l-.21-.2q-.26-.27-.32-.47t.035-.38.365-.45l2.72-2.75q.11-.11.275-.285t.235-.245.19-.175.185-.12.17-.035.195.03.21.13.27.22l.21.2zm.53.45l4.4-4.4q.21.28.415.595t.47.78.45.95.31 1 .1 1.04-.215.975q-.33.76-.59 1.175t-.695.93-.715.895q-2.26 2.57-6 6.07-.41.29-.9.725t-.915.705-1.185.57q-.43.17-.95.18t-1.035-.125T4.53 18.2t-.97-.445-.8-.455-.62-.4l4.4-4.4 1.18 1.62q.16.23.485.165t.66-.285.655-.54l.925-.93 1.18-1.185 1.045-1.065.85-.89q.32-.32.535-.65t.29-.655-.165-.495zM1.57 16.5l-.21-.21q-.15-.16-.235-.28t-.095-.245-.01-.195.11-.21.17-.205.27-.265.31-.3l2.74-2.72q.41-.39.635-.425t.635.315l.2.21z" fill="#444"/></svg>