<svg xmlns="http://www.w3.org/2000/svg" width="20" height="20" viewBox="0.5 820.5 20 20"><path d="M1.5 821.5v18h12l6-6v-12h-18zm11.746 8.747l-.61.61c-.367.373-.577.82-.63 1.343-.05.523.065.998.346 1.426l-1.487 1.48-1.958-1.96-2.275 2.268c-.292.292-.844.712-1.653 1.26-.81.546-1.29.746-1.435.6-.146-.146.054-.627.6-1.442.548-.815.965-1.366 1.252-1.653l2.267-2.268-1.958-1.966 1.487-1.48c.422.283.896.398 1.422.346s.972-.264 1.34-.638l.61-.61c.373-.367.585-.814.637-1.34.05-.524-.064-1-.345-1.43l1.48-1.478 5.166 5.16-1.487 1.478c-.422-.282-.896-.397-1.422-.345-.525.05-.974.263-1.348.637zM13.5 838v-4.5H18l-4.5 4.5z"/></svg>