<svg xmlns="http://www.w3.org/2000/svg" width="20" height="20" viewBox="0 0 20 20"><path d="M12.14 4.18q1.39 1.39 1.58 3.345t-.86 3.545q.03.03.155.14t.205.17q.34.27.81.59.62.43.66.47.61.45.94.78.49.49.84 1 .36.5.59 1.04.22.55.18 1-.03.48-.36.81t-.81.36q-.49.03-.99-.19-.52-.21-1.04-.59-.51-.35-1-.84-.33-.33-.77-.93-.02-.03-.47-.66-.32-.46-.56-.78-.24-.3-.44-.5-1.54.83-3.34.57t-3.1-1.55q-1.6-1.61-1.6-3.895t1.6-3.885q1.06-1.06 2.475-1.435t2.83 0T12.14 4.18zm-1.41 6.36q1.02-1.03 1.02-2.475T10.73 5.59Q9.7 4.56 8.25 4.56T5.78 5.59Q4.75 6.62 4.75 8.065t1.03 2.475q1.02 1.03 2.47 1.03t2.48-1.03z"/></svg>