<svg xmlns="http://www.w3.org/2000/svg" width="20" height="20" viewBox="0 0 20 20"><path d="M16.22 5.8q.35.52.235 1.125t-.635.955-1.125.235-.955-.635q-.21-.31-.55-.67-.36-.34-.67-.55-.37-.25-.77-.41-.42-.19-.84-.26-.9-.2-1.82-.01-.43.09-.84.27-.4.16-.77.41-.33.22-.66.55-.34.34-.56.67-.24.36-.41.76-.01.02-.01.04-.12.3-.23.72H1V6h2.66q.09-.16.12-.2.42-.62.91-1.11.51-.51 1.11-.91.63-.43 1.28-.7.71-.3 1.41-.43 1.51-.32 3.02 0 .7.13 1.41.43.65.27 1.28.7.6.4 1.11.91.49.49.91 1.11zM12.5 10q0-1.04-.73-1.77T10 7.5t-1.77.73T7.5 10t.73 1.77 1.77.73 1.77-.73.73-1.77zm-8.72 4.2q-.35-.52-.235-1.13t.635-.96 1.13-.23.95.64q.21.31.55.67.36.34.67.55.37.25.77.41.36.16.84.26.87.19 1.82 0 .48-.1.84-.26.4-.16.77-.41.33-.22.66-.55.31-.31.56-.67.26-.41.41-.76.01-.02.01-.04.12-.3.23-.72H19v3h-2.66q-.02.02-.055.09t-.065.11q-.42.62-.91 1.11-.51.51-1.11.91-.63.43-1.28.7-.64.27-1.41.43-1.51.32-3.02 0-.77-.16-1.41-.43-.65-.27-1.28-.7-.6-.4-1.11-.91-.49-.49-.91-1.11z"/></svg>