<svg xmlns="http://www.w3.org/2000/svg" width="20" height="20" viewBox="0 0 20 20"><path d="M18 10q0-1.63-.635-3.11T15.66 4.34t-2.55-1.705T10 2t-3.11.635T4.34 4.34 2.635 6.89 2 10t.635 3.11 1.705 2.55 2.55 1.705T10 18t3.11-.635 2.55-1.705 1.705-2.55T18 10zM7.23 3.57L8.72 7.3q-.97.45-1.42 1.42L3.57 7.23Q4.1 6 5.05 5.05t2.18-1.48zm9.2 3.66L12.7 8.72q-.45-.97-1.42-1.42l1.49-3.73q1.23.53 2.18 1.48t1.48 2.18zM10 12q-.82 0-1.41-.59T8 10t.59-1.41T10 8t1.41.59T12 10t-.59 1.41T10 12zm-6.43.77l3.73-1.49q.45.97 1.42 1.42l-1.49 3.73Q6 15.9 5.05 14.95t-1.48-2.18zm9.2 3.66l-1.49-3.73q.97-.45 1.42-1.42l3.73 1.49q-.53 1.23-1.48 2.18t-2.18 1.48z"/></svg>