<svg xmlns="http://www.w3.org/2000/svg" width="20" height="20" viewBox="0 0 20 20"><path d="M20 6.38L18.99 9.2v-.01q-.77-.28-1.53.08t-1.04 1.14q-.28.77.07 1.53.36.75 1.15 1.03v.01l-1.01 2.82-15.06-5.38.99-2.79q.77.28 1.53-.08.74-.34 1.03-1.13.28-.77-.08-1.53-.34-.73-1.13-1.02L4.93 1zm-4.97 5.69l1.37-3.76q.18-.47-.04-.95-.22-.46-.7-.65L8.14 3.98q-.48-.17-.955.05t-.645.69L5.17 8.48q-.18.49.04.96t.7.64l7.52 2.74q.22.08.43.08.39 0 .715-.23t.455-.6zM7.97 4.45l7.51 2.73q.29.11.43.39.13.28.02.57l-1.37 3.76q-.1.28-.385.42t-.575.03L6.09 9.61q-.29-.1-.425-.385T5.64 8.65l1.37-3.76q.07-.22.27-.355t.43-.135q.11 0 .26.05zm6.82 12.14q.53.41 1.2.41H16v3H0v-2.96q.84 0 1.41-.59.59-.57.59-1.41 0-.82-.59-1.41T0 13.04V10h1.05l-.28.8 2.87 1.02q-.39.12-.64.445T2.75 13v4q0 .52.365.885T4 18.25h8q.52 0 .885-.365T13.25 17v-1.75l.83.3q.18.65.71 1.04zM3.25 17v-4q0-.31.22-.53t.53-.22h.83l7.92 2.83V17q0 .31-.22.53t-.53.22H4q-.31 0-.53-.22T3.25 17z" fill="#444"/></svg>