<svg xmlns="http://www.w3.org/2000/svg" width="32" height="32" viewBox="0 0 32 32"><path d="M0 4.8h32V24h-1.2q0-2.144-1.528-3.672T25.6 18.8q-1.536 0-2.8.84t-1.904 2.216q-.64-.256-1.296-.256-1.152 0-2.072.672T16.224 24H0V4.8zm13.392 4.976q-.16.384-.176.752-.032.432.016.8l.032.128q.048.256.08.368.032.128.16.496.048.176.24.528.144.24.368.496.208.24.496.368.288.144.64.144.336 0 .624-.144.256-.128.48-.352.192-.192.352-.512.144-.24.256-.528.096-.24.144-.496.032-.112.048-.24l.032-.112q.016-.064.016-.144.112-.656-.064-1.312-.16-.608-.656-1.056-.512-.432-1.264-.432-.464 0-.832.16-.384.176-.608.448-.192.24-.384.64zm7.168 9.664v-1.824q0-.784-.464-1.568t-1.232-1.264q-.752-.496-1.632-.496l-1.984 1.344L13.2 14.32q-.896 0-1.664.48-.752.48-1.184 1.232-.432.768-.432 1.584v1.824l.288.08q.016 0 .816.224.64.144 1.184.24.496.096 1.456.208.912.08 1.584.08.64 0 1.568-.08.928-.112 1.424-.208.352-.048 1.216-.256l.8-.192q.176-.048.304-.096zm5.04.16q1.824 0 3.112 1.288T30 24t-1.288 3.112T25.6 28.4q-1.712 0-2.992-1.232.592-.896.592-1.968 0-.912-.424-1.704t-1.16-1.272q.528-1.184 1.6-1.904t2.384-.72zm-8.8 5.6q0-1.152.824-1.976T19.6 22.4t1.976.824.824 1.976-.824 1.976T19.6 28t-1.976-.824T16.8 25.2z"/></svg>