<svg xmlns="http://www.w3.org/2000/svg" width="32" height="32" viewBox="0 0 32 32"><path d="M32 10.208l-1.616 4.512v-.016q-1.232-.448-2.448.128t-1.664 1.824q-.448 1.232.112 2.448.576 1.2 1.84 1.648v.016l-1.616 4.512-24.096-8.608 1.584-4.464q1.232.448 2.448-.128 1.184-.544 1.648-1.808.448-1.232-.128-2.448-.544-1.168-1.808-1.632L7.888 1.6zm-7.952 9.104l2.192-6.016q.288-.752-.064-1.52-.352-.736-1.12-1.04L13.024 6.368q-.768-.272-1.528.08t-1.032 1.104l-2.192 6.016q-.288.784.064 1.536t1.12 1.024l12.032 4.384q.352.128.688.128.624 0 1.144-.368t.728-.96zM12.752 7.12l12.016 4.368q.464.176.688.624.208.448.032.912l-2.192 6.016q-.16.448-.616.672t-.92.048L9.744 15.376q-.464-.16-.68-.616t-.04-.92l2.192-6.016q.112-.352.432-.568t.688-.216q.176 0 .416.08zm10.912 19.424q.848.656 1.92.656h.016V32H0v-4.736q1.344 0 2.256-.944.944-.912.944-2.256 0-1.312-.944-2.256T0 20.864V16h1.68l-.448 1.28 4.592 1.632q-.624.192-1.024.712T4.4 20.8v6.4q0 .832.584 1.416T6.4 29.2h12.8q.832 0 1.416-.584T21.2 27.2v-2.8l1.328.48q.288 1.04 1.136 1.664zM5.2 27.2v-6.4q0-.496.352-.848T6.4 19.6h1.328L20.4 24.128V27.2q0 .496-.352.848t-.848.352H6.4q-.496 0-.848-.352T5.2 27.2z"/></svg>