<svg xmlns="http://www.w3.org/2000/svg" width="32" height="32" viewBox="0 0 32 32"><path d="M27.52 4.48l.256.272q.464.464.464 1.128t-.464 1.128L7.28 27.52q-.464.464-1.136.464t-1.12-.464l-.272-.272q-.464-.464-.464-1.128t.464-1.128l2.544-2.56Q3.504 20.016 1.6 16.144q1.936-3.952 5.824-6.384Q11.28 7.344 16 7.344q2.8 0 5.44.96l3.808-3.824q.464-.464 1.136-.464t1.136.464zm-11.344 6.416q-.544.592-.544 1.408 0 .688.496 1.296l2.88-2.864q-.32-.304-.72-.416-.608-.048-.784-.064-.784.064-1.328.64zM3.84 16.144q1.664 2.96 4.88 4.88l2.048-2.048Q9.536 17.312 9.536 15.2q0-2.56 1.744-4.416-2.448.64-4.416 2.016-1.936 1.408-3.024 3.344zm21.152-3.408l1.536-1.536q2.464 2.08 3.872 4.944-1.936 3.952-5.824 6.384Q20.72 24.944 16 24.944q-1.376 0-2.928-.288l1.712-1.712q.992.08 1.216.08 3.92 0 7.2-1.936t4.96-4.944q-1.088-1.936-3.024-3.344-.016 0-.064-.032t-.08-.032zm-8.928 8.928l6.4-6.4q-.016 2.624-1.888 4.496-1.888 1.888-4.512 1.904z"/></svg>