<svg xmlns="http://www.w3.org/2000/svg" width="32" height="32" viewBox="0 0 32 32"><path d="M0 28.8h16v-.416q3.856 1.008 7.616-.384 1.952-.72 3.56-2t2.68-2.928 1.64-3.536.504-3.944-.784-4.008q-.672-1.84-1.856-3.376t-2.68-2.584-3.272-1.696-3.632-.704T16 3.616V3.2H0v25.6zm14.4-24v22.4H1.6V4.8h12.8zm8.72 13.152q-.816 1.616-2.536 2.192t-3.336-.224q-.736-.352-1.248-.944v-5.968q.976-1.04 2.392-1.312t2.76.384q1.616.816 2.192 2.536t-.224 3.336zm-4.4-1.312q.256.192.584.144t.536-.304q.192-.256.144-.584t-.304-.536q-.272-.208-.592-.16t-.528.32q-.192.256-.144.584t.304.536zm4.816 5.872q-1.376.912-3 1.2t-3.128-.096q-.32-.08-.496-.368t-.096-.608.368-.488.624-.088l.272.064q2.48.432 4.576-.944 1.152-.784 1.824-1.888.176-.272.496-.344t.608.088q.272.176.352.504t-.096.6q-.912 1.44-2.304 2.368zm1.68 2.512q-1.744 1.168-3.744 1.592t-4 .104q-.336-.064-.528-.344t-.128-.616q.064-.32.344-.504t.632-.12l.352.064q3.376.384 6.192-1.504 1.616-1.072 2.72-2.784.16-.288.488-.36t.6.104q.288.16.36.488t-.104.616q-1.216 1.952-3.184 3.264z"/></svg>