<svg xmlns="http://www.w3.org/2000/svg" width="32" height="32" viewBox="0 0 32 32"><path d="M3.2 29.488q.448.432 1.504.296t2.464-.608 3.112-1.304 3.44-1.808 3.44-2.104 3.112-2.184 2.464-2.072 1.488-1.752q.576-.96.376-2.2t-.928-2.48-1.88-2.424q.512-.336 1.064-.336t1.032.28 1 .664.976.808.952.736.928.424.912-.128q.736-.384 1.096-1.368t.024-1.704q-.192-.416-.584-.728t-.76-.488-1.024-.32-1.008-.192-1.12-.12-.976-.088q.576-.144 1.28-.44t1.472-.752T28.344 6t.536-1.312q.048-1.104-1.064-2.104T25.6 1.712q-.4.048-.752.224t-.64.52-.504.656-.44.848-.352.84-.328.904-.28.808q-.256-3.568-1.568-4.72-.88-.688-1.696-.608t-1.408.744-.608 1.544q-.016.496.304 1t.784.896.968.872.848.912.432 1.016-.264 1.176q-1.248-.96-2.52-1.544t-2.488-.704-2.128.424q-1.12.72-2.608 2.704 2.688 2.848 4.944 4.352.24.176.296.464t-.12.528q-.16.256-.456.312t-.536-.12q-2.208-1.504-4.96-4.336-1.136 1.68-2.144 3.568 2.512 2.528 4.464 3.856.24.176.288.464t-.112.528q-.16.256-.456.312t-.552-.12q-1.872-1.28-4.336-3.712-2.288 4.512-3.392 8.384t-.08 4.784z"/></svg>