<svg xmlns="http://www.w3.org/2000/svg" width="32" height="32" viewBox="0 0 32 32"><path d="M22.4 9.392q0-2.64-1.872-4.52T16 2.992t-4.528 1.88T9.6 9.392q0 2.656 1.872 4.528T16 15.792t4.528-1.872T22.4 9.392zM5.184 17.056q-1.136.64-1.912 1.672t-1.088 2.208-.16 2.456.808 2.4q.88 1.504 2.376 2.36T8.344 29t3.24-.856q2.288-1.328 2.976-3.888t-.64-4.864q-.656-1.12-1.68-1.896t-2.2-1.088-2.456-.16-2.4.808zm15.232 11.088q2.304 1.328 4.864.64t3.888-2.976q.848-1.6.856-3.24t-.848-3.136-2.36-2.376q-1.12-.656-2.4-.808t-2.456.16-2.2 1.088-1.68 1.896q-1.328 2.304-.64 4.864t2.976 3.888z"/></svg>