<svg xmlns="http://www.w3.org/2000/svg" width="32" height="32" viewBox="0 0 32 32"><path d="M29.328 5.712q.048-.144.096-.384t-.064-.816-.528-.976q-.384-.368-.872-.464t-.792 0l-.288.08q-1.456.72-5.88 3.736t-6.392 5.176q-.736.832-1.408 2.32t-.88 3 .544 2.392q.832.736 2.344.576t3.072-.824 2.248-1.352q2.144-2.144 5.168-6.656t3.632-5.808zM2.24 28.24q1.056-.688 1.712-1.528t.952-1.616.544-1.52.72-1.48 1.24-1.28q1.088-.8 2.504-.704t2.424 1.168q.816.88.824 2.64t-1.08 2.896q-1.216 1.12-2.904 1.624t-3.424.424-3.512-.624z"/></svg>