<svg xmlns="http://www.w3.org/2000/svg" width="32" height="32" viewBox="0 0 32 32"><path d="M3.2 11.2h6.4l8-6.4v22.4l-8-6.4H3.2v-9.6zm20.304-3.936q.128.048.36.16t.768.464 1.048.792 1.096 1.168 1.016 1.576.72 2.048T28.8 16t-.288 2.528-.72 2.048-1.016 1.576-1.096 1.168-1.048.792-.768.464-.36.16q-.128.064-.304.064-.56 0-.736-.496-.128-.304 0-.608t.432-.432q.16-.08.304-.144t.616-.376.856-.664.88-.968.832-1.312.576-1.696T27.2 16q0-1.536-.456-2.848t-1.04-2.072-1.28-1.344-1.048-.768-.48-.232q-.304-.128-.432-.432t0-.608.432-.432.608 0zM25.6 16q0 1.12-.376 2.104t-.8 1.536-1.096 1.048-.88.6-.544.248l-.016.016q-.144.048-.288.048-.544 0-.752-.512-.112-.304.024-.608t.44-.432q.096-.032.328-.144t.664-.44.792-.76.632-1.152T24 16t-.272-1.552-.632-1.152-.792-.76-.664-.44-.328-.144q-.304-.128-.44-.432t-.024-.608q.128-.304.432-.44t.608-.024q2.32 1.024 3.232 3.12.48 1.12.48 2.432z"/></svg>