<svg xmlns="http://www.w3.org/2000/svg" width="20" height="20" viewBox="0 0 20 20"><path d="M18 17V3q0-.41-.295-.705T17 2H3q-.41 0-.705.295T2 3v14q0 .41.295.705T3 18h14q.41 0 .705-.295T18 17zm-1 0H3V3h14v14zM4.75 4h10.5q.31 0 .53.22t.22.53V6h-1v3h1v2h-1v3h1v1.25q0 .31-.22.53t-.53.22H4.75q-.31 0-.53-.22T4 15.25V4.75q0-.31.22-.53T4.75 4zM13 10q0-1.66-1.17-2.83T9 6 6.17 7.17 5 10t1.17 2.83T9 14t2.83-1.17T13 10zM9 7l.77 1.15q.55.24.89.74T11 10q0 .82-.59 1.41T9 12t-1.41-.59T7 10q0-.61.34-1.11t.89-.74z"/></svg>