<svg xmlns="http://www.w3.org/2000/svg" width="20" height="20" viewBox="0 0 20 20"><path d="M10 5.09q2.94 0 5.36 1.51T19 10.59q-1.22 2.48-3.64 3.99T10 16.09t-5.36-1.51T1 10.59Q2.22 8.11 4.64 6.6T10 5.09zm2.35 3.1q0-.44-.26-.78t-.66-.46q-.17-.02-.49-.04-.49.04-.83.405t-.34.875q0 .53.38.91t.91.38q.54 0 .915-.38t.375-.91zM10 14.89q2.44 0 4.495-1.21t3.105-3.09q-.69-1.23-1.89-2.085T12.95 7.24q1.09 1.17 1.09 2.76 0 1.67-1.185 2.855T10 14.04t-2.855-1.185T5.96 10q0-1.59 1.09-2.76-1.56.41-2.76 1.265T2.4 10.59q1.05 1.88 3.105 3.09T10 14.89z"/></svg>