<svg xmlns="http://www.w3.org/2000/svg" width="20" height="20" viewBox="0 0 20 20"><path d="M10 9.25q-.46 0-.865-.19t-.675-.495-.49-.67-.345-.73-.21-.67T7.3 6l-.03-.19q-.06-.55-.03-1.085t.245-1.03.53-.87.825-.6T9.97 2q1.03 0 1.71.59t.91 1.44.09 1.78q-.01.07-.03.195t-.105.48-.205.68-.335.725-.48.685-.665.48-.86.195zm0 2.42l2.72-1.82q1.16 0 2.215.67t1.68 1.72.625 2.14v2.49q-.15.05-.415.125t-1.09.27-1.645.345-1.95.27T10 18q-1.02 0-2.145-.115t-1.995-.28-1.595-.335-1.115-.29l-.39-.11v-2.49q0-1.12.58-2.15t1.625-1.68T7.23 9.9z"/></svg>