<svg xmlns="http://www.w3.org/2000/svg" width="20" height="20" viewBox="0 0 20 20"><path d="M19 10q0-1.83-.715-3.495t-1.92-2.87-2.87-1.92T10 1t-3.495.715-2.87 1.92-1.92 2.87T1 10t.715 3.495 1.92 2.87 2.87 1.92T10 19t3.495-.715 2.87-1.92 1.92-2.87T19 10zm-11 .1q-3.78-.39-5.48-2.29.74-2.4 2.715-3.96T9.77 2.18q-.33.55-.56 1.26t-.32 1.49.12 1.545.73 1.275q-.35.05-.69-.06t-.585-.3-.51-.4-.455-.36-.43-.175-.44.145q-.88.69-.42 1.5.5.88 2.28 1.44.62.2 1.34.33.97.17 1.645.405t1.065.495.6.625.27.71.05.845q-.06 2.98-4.06 4.7.02-.86-.115-1.53t-.38-1.09-.55-.735-.635-.52-.625-.37-.54-.365-.355-.43q.1-.42.185-.675t.275-.615.52-.66.82-.56zm8.49-4.32q.31.48.545.975t.385.925.23.89.115.81.015.755-.045.66-.1.585-.115.465-.12.375l-.07.24q-.21-.51-.52-.955t-.605-.745-.575-.58-.505-.6-.325-.66q-.39-1.37 1.69-3.14z"/></svg>