<svg xmlns="http://www.w3.org/2000/svg" width="20" height="20" viewBox="0 0 20 20"><path d="M8.55 3.06q.2.07.21.22t-.11.355-.3.445-.32.515-.195.54.09.545.525.51q.23.17.61.05t.75-.37.825-.635.835-.74.78-.69.65-.475q.39-.22.845-.3t.95 0 .96.47.775 1.06q.33.72.41 1.82t-.145 2.395-.7 2.555-1.35 2.42-2.005 1.87q-1.17.74-2.465 1.06t-2.525.2-2.335-.585T3.33 14.97t-1.39-2.01q-.29-.66-.395-1.41t-.025-1.475.3-1.475.575-1.425.79-1.31.95-1.135T5.2 3.82t1.13-.62 1.135-.275 1.085.135zm1.21 6.45q.3.68 1.26.56.91-.12 1.73-.84.96-.86.93-1.87-.01-.34-.13-.65-.26-.65-1.24-.33-.92.29-1.76 1.12-.94.94-.87 1.71.02.16.08.3z"/></svg>