<svg xmlns="http://www.w3.org/2000/svg" width="20" height="20" viewBox="0 0 20 20"><path d="M17.54 10.29q.88.88.88 2.125t-.88 2.125-2.125.88-2.125-.88l-.34-.52q0 .66-.095 1.24t-.225.995-.365.795-.425.605-.495.47-.48.355-.475.285T10 19q-.11-.08-.495-.32t-.645-.42-.635-.585-.605-.855-.4-1.185-.17-1.615l-.34.52q-.88.88-2.125.88t-2.125-.88-.88-2.125.88-2.125q1.02-.67 2.1-1.3Q3.2 7.15 3.2 4.88q0-.47.08-1 .18 1.31.84 2.455T5.8 8.3q.53-.28 1.265-.57t1.105-.35H8q-.82 0-1.41-.59T6 5.38t.59-1.41T8 3.38v-.5q0-.21.145-.355T8.5 2.38t.355.145T9 2.88v.5h2v-.5q0-.21.145-.355t.355-.145.355.145.145.355v.5q.82 0 1.41.59T14 5.38t-.59 1.41-1.41.59h-.17q.36.06 1.125.365t1.255.555q1.02-.82 1.68-1.965t.84-2.455q.08.53.08 1 0 2.27-1.36 4.11.48.28 1 .605t.81.505zM8.5 6.38q.38 0 .69-.3t.31-.7q0-.41-.295-.705T8.5 4.38t-.705.295-.295.705.295.705.705.295zm3-2q-.41 0-.705.295t-.295.705.295.705.705.295.705-.295.295-.705-.295-.705-.705-.295zm-2.3 5.73q-.19.17-.19.43.02.19.16.325T9.5 11h1q.19 0 .33-.135t.16-.325q0-.21-.19-.43-.15-.11-.3-.11h-1q-.15 0-.3.11zM12 12.5q0-.23-.19-.38-.15-.12-.31-.12h-3q-.16 0-.31.12-.19.17-.19.38t.145.355T8.5 13h3q.21 0 .355-.145T12 12.5zM8.5 15h3q.21 0 .355-.145T12 14.5t-.145-.355T11.5 14h-3q-.21 0-.355.145T8 14.5t.145.355T8.5 15zm1 2h1q.21 0 .355-.145T11 16.5t-.145-.355T10.5 16h-1q-.21 0-.355.145T9 16.5t.145.355T9.5 17z"/></svg>