<svg xmlns="http://www.w3.org/2000/svg" width="20" height="20" viewBox="0 0 20 20"><path d="M9 3q0-.92-1-2-.4.4-.7.98T7 3q0 .37.3.685T8 4q.41 0 .705-.3T9 3zm4 0q0-.92-1-2-.4.4-.7.98T11 3q0 .37.3.685T12 4q.41 0 .705-.3T13 3zM9 9V5.5q0-.41-.295-.705T8 4.5q-.42 0-.71.305T7 5.5V9q0 .41.295.705T8 10q.42 0 .71-.305T9 9zm4 0V5.5q0-.41-.295-.705T12 4.5q-.42 0-.71.305T11 5.5V9q0 .41.295.705T12 10q.42 0 .71-.305T13 9zm4 1q0-1.09-.95-2.01T13.5 6.54V9q0 .62-.44 1.06T12 10.5t-1.06-.44T10.5 9V6.01q-.08 0-.25-.005T10 6t-.25.005-.25.005V9q0 .62-.44 1.06T8 10.5t-1.06-.44T6.5 9V6.54q-1.6.53-2.55 1.45T3 10q0 1.1.785 1.975T6.21 13.37q.32.1 1.085.42t1.425.51 1.28.19 1.28-.19 1.425-.515 1.085-.425q1.63-.51 2.42-1.385T17 10zm-7 5.43q.63 0 1.315-.195t1.44-.505 1.125-.41q.68-.19 1.185-.435t.865-.575.57-.595T17 12v3q0 1.09-.935 2.01t-2.55 1.455T10 19t-3.515-.535-2.55-1.455T3 15v-3q.37.58.7.945t.955.75 1.495.635q.35.1 1.115.41t1.435.5 1.3.19z"/></svg>