<svg xmlns="http://www.w3.org/2000/svg" width="20" height="20" viewBox="0 0 20 20"><path d="M10.44 1.66q-.44-.44-1.06-.44t-1.06.44L2.66 7.32q-.44.44-.44 1.06t.44 1.06q.46.44 1.075.435T4.78 9.44l5.66-5.66q.44-.44.44-1.06t-.44-1.06zm2.83 2.83q-.44-.44-1.065-.44t-1.055.44l-5.66 5.66q-.44.43-.44 1.055t.44 1.065q.46.44 1.075.43t1.045-.43l5.66-5.66q.43-.43.43-1.055t-.43-1.065zm1.06 6.72l4.18 4.18q.44.44.44 1.06t-.44 1.06-1.065.44-1.055-.44l-4.18-4.18-1.77 1.77q-.44.44-1.06.44t-1.06-.44-.44-1.065.44-1.065l5.66-5.65q.44-.44 1.06-.44t1.06.44.44 1.06-.44 1.06zM5 15q0-.45-.17-1.025T4.415 12.9t-.49-.94-.415-.7L3.34 11q-.15.31-.37.805t-.595 1.575T2 15q0 .9.385 1.45t.955.55h.32q.62 0 .98-.445T5 15z"/></svg>