<svg xmlns="http://www.w3.org/2000/svg" width="20" height="20" viewBox="0 0 20 20"><path d="M7.3 6l-.03-.19q-.06-.55-.03-1.08.03-.56.25-1.04.22-.5.52-.86.33-.39.83-.6Q9.36 2 9.97 2q1.03 0 1.71.59.69.6.91 1.44.22.85.09 1.78l-.03.19q-.01.1-.11.48-.07.33-.2.69-.13.34-.34.72-.18.35-.47.69-.25.26-.67.48-.39.19-.86.19-.46 0-.87-.19-.42-.21-.67-.5-.25-.28-.49-.66-.22-.36-.34-.73-.14-.39-.21-.67-.09-.33-.12-.5zm9.2 6.24q.5.85.5 2.14v2.49q0 .04-.29.13-.07.02-.37.105t-.6.165q-1.1.24-1.65.34-.85.15-1.95.27-1.12.12-2.13.12t-2.14-.12q-.9-.08-1.98-.27-.44-.08-1.56-.34-.43-.1-1.06-.29L3 16.87v-2.49q0-1.34.46-2.15.65-1.15 1.5-1.68.47-.29 1.36-.42T8 10l1.67 1.67L9 13v3l1.02 1.08L11 16v-3l-.68-1.33L11.97 10q2.09 0 2.9.52.96.61 1.63 1.72z"/></svg>