<svg xmlns="http://www.w3.org/2000/svg" width="20" height="20" viewBox="0 0 20 20"><path d="M15 4h3v15H2V4h3V3q0-.6.44-1.06.44-.44 1.06-.44t1.06.44Q8 2.4 8 3v1h4V3q0-.6.44-1.06.44-.44 1.06-.44t1.06.44Q15 2.4 15 3v1zM6 3v2.5q0 .21.15.36.14.14.35.14t.35-.14Q7 5.71 7 5.5V3q0-.22-.15-.35-.13-.15-.35-.15t-.35.15Q6 2.78 6 3zm7 0v2.5q0 .2.14.36.16.14.36.14t.36-.14Q14 5.7 14 5.5V3q0-.21-.14-.35-.15-.15-.36-.15t-.36.15Q13 2.79 13 3zm4 15V8H3v10h14zM7 9v2H5V9h2zm2 0h2v2H9V9zm4 2V9h2v2h-2zm-6 1v2H5v-2h2zm2 0h2v2H9v-2zm4 2v-2h2v2h-2zm-6 1v2H5v-2h2zm4 2H9v-2h2v2zm4 0h-2v-2h2v2z"/></svg>