<svg xmlns="http://www.w3.org/2000/svg" width="20" height="20" viewBox="0 0 20 20"><path d="M2 18.43q.28.27.94.185t1.54-.38 1.945-.815 2.15-1.13 2.15-1.315 1.945-1.365 1.54-1.295.93-1.095q.36-.6.235-1.375t-.58-1.55T13.62 6.78q.32-.21.665-.21t.645.175.625.415.61.505.595.46.58.265.57-.08q.46-.24.685-.855t.015-1.065q-.12-.26-.365-.455t-.475-.305-.64-.2-.63-.12-.7-.075-.61-.055q.36-.09.8-.275t.92-.47.805-.685.335-.82q.03-.69-.665-1.315T16 1.07q-.25.03-.47.14t-.4.325-.315.41-.275.53-.22.525-.205.565-.175.505q-.16-2.23-.98-2.95-.55-.43-1.06-.38t-.88.465-.38.965q-.01.31.19.625t.49.56.605.545.53.57.27.635-.165.735q-.78-.6-1.575-.965t-1.555-.44T8.1 4.7q-.7.45-1.63 1.69 1.68 1.78 3.09 2.72.15.11.185.29t-.075.33q-.1.16-.285.195T9.05 9.85q-1.38-.94-3.1-2.71-.71 1.05-1.34 2.23 1.57 1.58 2.79 2.41.15.11.18.29t-.07.33q-.1.16-.285.195t-.345-.075q-1.17-.8-2.71-2.32-1.43 2.82-2.12 5.24T2 18.43z"/></svg>