<svg xmlns="http://www.w3.org/2000/svg" width="20" height="20" viewBox="0 0 20 20"><path d="M18 18l.01-12.28q.45-.27.72-.725T19 4q0-.82-.59-1.41T17 2t-1.41.59T15 4q0 .59.315 1.075t.825.725l-4.13 6.58q-.52-.38-1.16-.38-.62 0-1.12.34t-.73.9l-2.14-1.53Q7 11.37 7 11q0-.83-.585-1.415T5 9t-1.415.585T3 11q0 .54.265.99t.715.72L1 18h17zM17 3q.41 0 .705.295T18 4t-.295.705T17 5t-.705-.295T16 4t.295-.705T17 3zM5 10q.41 0 .705.295T6 11t-.295.705T5 12t-.705-.295T4 11t.295-.705T5 10zm5.85 3q.41 0 .705.295t.295.705-.295.705-.705.295-.705-.295T9.85 14t.295-.705.705-.295z"/></svg>