<svg xmlns="http://www.w3.org/2000/svg" width="20" height="20" viewBox="0 0 20 20"><path d="M11.9.39l1.4 1.4q.5.06 1.235-.015t1.27-.15 1.13.04.975.495.495.975.04 1.13-.15 1.27-.015 1.235l1.4 1.4q.29.29.29.705t-.29.705l-9.19 9.2q-.3.29-.715.29t-.705-.29L1.29 11Q1 10.71 1 10.295t.29-.715l9.2-9.19q.29-.29.705-.29t.705.29zm.58 2.25l-.58.58 4.95 4.95.58-.58q-.24-.75-.15-1.82.03-.47.09-.92.11-.73.09-1.235t-.26-.745-.745-.26-1.235.09q-.45.06-.92.09-1.07.09-1.82-.15zm4.02.93q.29.29.29.71t-.29.71-.71.29-.71-.29-.29-.71.29-.71.71-.29.71.29zm-6.72.36l-.71.7L15.44 11l.7-.71zM8.36 5.34l-.7.71 6.36 6.36.71-.7zM6.95 6.76l-.71.7 6.37 6.37.7-.71zM5.54 8.17l-.71.71 6.36 6.36.71-.71zM4.12 9.58l-.71.71 6.37 6.37.71-.71z"/></svg>