<svg xmlns="http://www.w3.org/2000/svg" width="20" height="20" viewBox="0 0 20 20"><path d="M3.76 16h12.48Q18 13.81 18 11q0-1.63-.635-3.11T15.66 5.34t-2.55-1.705T10 3t-3.11.635T4.34 5.34 2.635 7.89 2 11q0 2.81 1.76 5zM10 4q.41 0 .705.295T11 5t-.295.705T10 6t-.705-.295T9 5t.295-.705T10 4zM6 6q.41 0 .705.295T7 7t-.295.705T6 8t-.705-.295T5 7t.295-.705T6 6zm8 0q.41 0 .705.295T15 7t-.295.705T14 8t-.705-.295T13 7t.295-.705T14 6zm-5.37 5.55L12 7v6q0 .82-.59 1.41T10 15t-1.41-.59T8 13q0-.85.63-1.45zM4 10q.41 0 .705.295T5 11t-.295.705T4 12t-.705-.295T3 11t.295-.705T4 10zm12 0q.41 0 .705.295T17 11t-.295.705T16 12t-.705-.295T15 11t.295-.705T16 10zm-5 3q0-.41-.295-.705T10 12t-.705.295T9 13t.295.705T10 14t.705-.295T11 13z"/></svg>