<svg xmlns="http://www.w3.org/2000/svg" width="20" height="20" viewBox="0 0 20 20"><path d="M15.84 2.76q.36 0 .71.11.26.08.64.25l.35-.81q-.78-.39-1.69-.39-.86 0-1.52.37-.65.37-.99 1.08Q13 4.05 13 5q0 1.49.7 2.28t2.02.79q.88 0 1.6-.26v-.84q-.32.1-.74.19-.38.08-.74.08-.89 0-1.34-.57-.47-.54-.47-1.66 0-1.05.48-1.65.49-.6 1.33-.6zM6.5 8h1.04L5.3 2H4.24L2 8h1.03l.58-1.66H5.9zM8 2v6h2.17q1.01 0 1.57-.46.56-.44.56-1.26 0-.6-.3-.95-.28-.35-.93-.47v-.04q.5-.09.78-.44.28-.37.28-.88 0-.78-.56-1.14Q11.03 2 9.78 2H8zm.98 2.48V2.82h.85q.68 0 .97.19.31.18.31.61 0 .46-.29.66-.28.2-.89.2h-.95zM5.64 5.5H3.9l.54-1.56q.23-.65.32-1.1l.15.52q.08.26.17.51zm3.34-.23h.99q.64 0 .98.23.32.23.32.69 0 .51-.32.75-.31.24-.93.24H8.98V5.27zM4 13l5 5 9-8-1-1-8 6-4-3z"/></svg>