<svg xmlns="http://www.w3.org/2000/svg" width="20" height="20" viewBox="0 0 20 20"><path d="M17 10q0-1.9-.94-3.515t-2.55-2.55T10 3q-1.43 0-2.725.555t-2.23 1.49-1.49 2.23T3 10t.555 2.725 1.49 2.23 2.23 1.49T10 17q1.9 0 3.51-.935t2.55-2.55T17 10zm-6.3 1.48H9.14v-.43q0-.56.24-.98.22-.39.88-.89.61-.43.81-.71.2-.26.2-.62 0-.37-.28-.58-.28-.19-.79-.19-.88 0-2 .57l-.64-1.28q1.31-.74 2.77-.74 1.2 0 1.92.58.71.58.71 1.55 0 .66-.29 1.11-.27.45-1.11 1.06-.55.4-.71.63-.15.22-.15.57v.35zm-1.47 2.74q-.27-.26-.27-.73 0-.5.26-.75t.77-.25q.47 0 .75.26.27.26.27.74 0 .47-.27.72-.27.27-.75.27t-.76-.26z"/></svg>