<svg xmlns="http://www.w3.org/2000/svg" width="20" height="20" viewBox="0 0 20 20"><path d="M6 7V3h-.69L4.02 4.03l.4.51.46-.37q.12-.1.3-.28l-.02.42V7H6zm2-2h9v1H8V5zm-1.23 6.95v-.7H5.05v-.04l.51-.48q.56-.52.7-.71.21-.26.3-.49.1-.23.1-.51 0-.33-.16-.56-.14-.23-.44-.37t-.65-.14q-.29 0-.51.06-.17.03-.42.15-.21.12-.48.35l.45.54q.24-.19.45-.3.21-.1.45-.1.23 0 .35.11.13.12.13.36 0 .15-.06.3-.07.16-.19.33-.11.13-.58.62l-.99 1v.58h2.76zM8 10h9v1H8v-1zm-1.29 3.95q0-.46-.37-.71-.37-.26-1-.26-.78 0-1.33.4l.4.6q.27-.18.46-.23.2-.07.41-.07.58 0 .58.46 0 .31-.22.43t-.7.12h-.31v.66h.31q.51 0 .75.12.23.12.23.41 0 .32-.2.47-.21.15-.63.15-.27 0-.57-.08-.25-.07-.52-.2v.74q.5.22 1.18.22.8 0 1.22-.33.43-.33.43-.92 0-.4-.26-.64-.25-.24-.74-.3v-.02q.4-.09.65-.37.23-.28.23-.65zM8 15h9v1H8v-1z"/></svg>