<svg xmlns="http://www.w3.org/2000/svg" width="20" height="20" viewBox="0 0 20 20"><path d="M2.25 1h15.5q.52 0 .885.365T19 2.25v15.5q0 .52-.365.885T17.75 19H2.25q-.52 0-.885-.365T1 17.75V2.25q0-.52.365-.885T2.25 1zM17 17V3H3v14h14zM10 6q0-.82-.59-1.41T8 4t-1.41.59T6 6t.59 1.41T8 8t1.41-.59T10 6zm3 5q0-.08.005-.21t.03-.54.075-.81.155-.94.25-1.005.375-.935.52-.805.7-.545T16 5v10q0 .41-.295.705T15 16H5q-.41 0-.705-.295T4 15V8q.41 0 .795.22t.675.575.55.78.435.85.3.78.185.575L7 12q.04-.12.12-.325t.36-.72.6-.91.84-.72T10 9t1.075.205.85.5.59.59.365.505z"/></svg>