<svg xmlns="http://www.w3.org/2000/svg" width="20" height="20" viewBox="0 0 20 20"><path d="M16 4h1.96q.43 0 .735.305T19 5.04v12.92q0 .43-.305.735T17.96 19H5.04q-.43 0-.735-.305T4 17.96V16H2.04q-.43 0-.735-.305T1 14.96V2.04q0-.43.305-.735T2.04 1h12.92q.43 0 .735.305T16 2.04V4zM3 14h11V3H3v11zm5-8.5q0-.62-.44-1.06T6.5 4t-1.06.44T5 5.5t.44 1.06T6.5 7t1.06-.44T8 5.5zm2 4.5q.02-.1.06-.28t.185-.7.305-.995.43-1.05.555-.99.67-.7T13 5v8H4V7q.56 0 .97.31t.6.75.3.88.12.75L6 10q.01-.04.025-.115t.08-.28.155-.395.255-.42.36-.395.49-.28T8 8q.47 0 .845.205t.58.5.345.59.19.505zm7 7V6h-1v8.96q0 .43-.305.735T14.96 16H6v1h11z"/></svg>