<svg xmlns="http://www.w3.org/2000/svg" width="20" height="20" viewBox="0 0 20 20"><path d="M8.03 4.46q-.07.4-.045.855t.205.92.42.84.61.61.78.235q.5 0 .94-.36t.68-.89.355-1.13-.015-1.08q-.16-.72-.725-1.175T10 2.83q-.68 0-1.24.455T8.03 4.46zm-4.13.9q-.13.55.04 1.23t.615 1.19 1.015.51 1.015-.51.615-1.19.04-1.23q-.14-.61-.62-1t-1.05-.39-1.05.39-.62 1zm8.86 0q-.13.55.04 1.23t.615 1.19 1.005.51q.57 0 1.015-.51t.615-1.19.04-1.23q-.14-.61-.62-1t-1.05-.39-1.045.39-.615 1zm-.59 11.43l1.25-4.3q.37-1.26.06-2.15t-1.22-1.38T10 8.47q-2.07 0-3.04 1.09t-.4 2.93l1.26 4.3q.17.53.795.87T10 18q.75 0 1.375-.34t.795-.87zm-6.1-7.63Q5 10.63 5.65 12.75l1.12 3.79q-.53.31-1.2.31-.65 0-1.175-.285t-.675-.745l-1.07-3.65q-.48-1.56.34-2.48t2.58-.92q.41 0 .79.06-.11.11-.29.33zm8.35-.39q1.76 0 2.585.92t.335 2.48l-1.07 3.65q-.15.46-.675.745t-1.175.285q-.67 0-1.2-.31l1.11-3.77q.67-2.15-.42-3.61-.13-.18-.28-.33.38-.06.79-.06z"/></svg>