<svg xmlns="http://www.w3.org/2000/svg" width="20" height="20" viewBox="0 0 20 20"><path d="M18 16H2V4h16v12zM7.05 8.53q.19-.11.33-.24.14-.16.24-.34.13-.26.17-.37.05-.13.1-.34L7.95 7q0-.02.005-.05t.005-.04q.07-.45-.04-.9-.12-.43-.46-.72Q7.11 5 6.6 5q-.29 0-.56.11-.26.12-.41.3-.17.2-.27.44t-.12.51q-.01.18.01.55l.02.09q.02.11.06.25l.1.33q.06.18.17.37.13.2.25.33.15.17.34.25.19.09.43.09t.43-.09zM17 9V5h-5v4h5zm-10.38.83l-1.38-.88q-.61 0-1.14.32-.53.33-.81.85-.29.52-.29 1.07v1.25l.2.05q.26.08.55.14.41.1.8.17.34.07 1 .14.55.06 1.07.06.5 0 1.07-.06.48-.05.98-.14.54-.1.82-.17.16-.03.34-.08t.2-.05q.13-.04.21-.06v-1.25q0-.55-.31-1.07-.32-.53-.84-.86-.53-.33-1.11-.33zM17 11v-1h-5v1h5zm0 2v-1h-5v1h5zm0 2v-1H3v1h14z"/></svg>