<svg xmlns="http://www.w3.org/2000/svg" width="20" height="20" viewBox="0 0 20 20"><path d="M18.15 5.94q.66 2.33-.02 4.48-.31.96-.915 1.605t-1.385.875q-.16.06-.4.06-.06.02-.18.02-.06.02-.22.02h-6.8l2.22 5.5q.03.18-.14.34-.13.16-.34.16H6.95q-.21 0-.34-.16-.17-.17-.14-.34l-1-5.5H4.25l-.02-.02q-.37.04-.78-.125t-.76-.495q-.81-.78-1.06-1.88-.33-1.1-.02-2.2.27-.94 1.06-1.3l.02-.02 9-5.4q.2-.12.24-.16.09-.06.24-.12.19-.1.5-.18.77-.22 1.62.045t1.6.935q.76.68 1.355 1.68t.905 2.18zm-2.58 5.98h-.02q.58-.14 1.04-.7.86-1.04.86-3.04 0-.92-.28-1.98-.5-1.99-1.78-3.24-.58-.56-1.23-.8t-1.23-.08q-1.22.33-1.7 2-.48 1.56.06 3.72.59 2.12 1.8 3.24 1.26 1.19 2.48.88zm-2.54-7.08q.3-.06.62.04.66.28 1.02 1 .42.84.42 1.78 0 .44-.12.8-.3.81-.86.94-.26.08-.575-.035T12.97 9q-.58-.58-.78-1.5-.24-.83.02-1.72.1-.35.33-.605t.49-.335z"/></svg>