<svg xmlns="http://www.w3.org/2000/svg" width="20" height="20" viewBox="0 0 20 20"><path d="M0 3h20v12h-.75q0-1.34-.955-2.295T16 11.75q-.96 0-1.75.525t-1.19 1.385q-.4-.16-.81-.16-.72 0-1.295.42T10.14 15H0V3zm8.37 3.11q-.1.24-.11.47-.02.27.01.5l.02.08q.03.16.05.23.02.08.1.31.03.11.15.33.09.15.23.31.13.15.31.23.18.09.4.09.21 0 .39-.09.16-.08.3-.22.12-.12.22-.32.09-.15.16-.33.06-.15.09-.31.02-.07.03-.15l.02-.07q.01-.04.01-.09.07-.41-.04-.82-.1-.38-.41-.66-.32-.27-.79-.27-.29 0-.52.1-.24.11-.38.28-.12.15-.24.4zm4.48 6.04v-1.14q0-.49-.29-.98t-.77-.79q-.47-.31-1.02-.31l-1.24.84-1.28-.82q-.56 0-1.04.3-.47.3-.74.77-.27.48-.27.99v1.14l.18.05q.01 0 .51.14.4.09.74.15.31.06.91.13.57.05.99.05.4 0 .98-.05.58-.07.89-.13.22-.03.76-.16l.5-.12q.11-.03.19-.06zm3.15.1q1.14 0 1.945.805T18.75 15t-.805 1.945T16 17.75q-1.07 0-1.87-.77.37-.56.37-1.23 0-.57-.265-1.065t-.725-.795q.33-.74 1-1.19t1.49-.45zm-5.5 3.5q0-.72.515-1.235T12.25 14t1.235.515T14 15.75t-.515 1.235-1.235.515-1.235-.515-.515-1.235z" fill="#444"/></svg>