<svg xmlns="http://www.w3.org/2000/svg" width="20" height="20" viewBox="0 0 20 20"><path d="M8.58 2.39q.47 0 .81.14.88.39 1.285 1.465T11.09 6.5q.56-.77 1.56-1.53t1.85-.76q.41 0 .8.095t.815.345.78.64.66 1.025.475 1.445q-1.63-.94-3.65-.94-1.98 0-3.29.89.58-.16 1.33-.16 1.11 0 2.075.345t1.325.965q.34.58.385 1.405t-.255 1.6T15.06 13q-.07-1.04-.555-1.99t-1.27-1.54-1.645-.59q-.67 0-1.33.38-1.09.66-1.84 2.145T7.335 14.8 7 19H2q0-1.6.465-3.13t1.24-2.735 1.775-2.22T7.55 9.23t2.13-1.02q-.93-.15-1.82-.15Q4.65 8.06 2 10q.28-1.07.78-1.88t1.14-1.285 1.335-.705T6.69 5.9q.93 0 1.78.345t1.42.945q-.24-.8-.685-1.385t-1.015-.89-1.155-.445-1.225-.14q-1.13 0-2.05.35.66-.93 2.15-1.61t2.67-.68zM13 11.5q0-.62-.44-1.06T11.5 10t-1.06.44T10 11.5t.44 1.06 1.06.44 1.06-.44.44-1.06z" fill="#444"/></svg>