<svg xmlns="http://www.w3.org/2000/svg" width="20" height="20" viewBox="0 0 20 20"><path d="M3.76 17.01h12.48Q18 14.8 18 12q0-1.62-.635-3.105T15.66 6.34t-2.55-1.705T10 4t-3.11.635T4.34 6.34 2.635 8.895 2 12q0 2.8 1.76 5.01zM9 6q0-.41.295-.705T10 5t.705.295T11 6q0 .42-.295.71T10 7t-.705-.29T9 6zM4 8q0-.41.295-.705T5 7t.705.295T6 8q0 .42-.295.71T5 9t-.705-.29T4 8zm4.52 3.4q.37-.37 2-1.245t3.07-1.565l1.44-.69q-.3.64-.765 1.605t-1.41 2.75-1.315 2.155q-.63.63-1.51.63t-1.51-.63q-.62-.62-.62-1.505t.62-1.505zM3 13q0-.41.295-.705T4 12t.705.295T5 13q0 .42-.295.71T4 14t-.705-.29T3 13zm6 0q0-.41.295-.705T10 12t.705.295T11 13q0 .42-.295.71T10 14t-.705-.29T9 13zm6 0q0-.41.295-.705T16 12t.705.295T17 13q0 .42-.295.71T16 14t-.705-.29T15 13z"/></svg>