<svg xmlns="http://www.w3.org/2000/svg" width="20" height="20" viewBox="0 0 20 20"><path d="M4 5H.78q-.3 0-.515.235T.09 5.84l1.56 9.99Q3.5 8.47 3.86 6.7q.08-.36.365-.53T4.84 6H10q-.7-2.08-.77-2.31Q9.04 3 8.45 3H5.14q-.28 0-.505.17t-.295.47zm4.88 0h-4q.02-.04.05-.11t.125-.24.195-.3.235-.24T5.75 4h2.13q.21 0 .46.25t.4.5zM2.67 16.25q-.49.75-1.26.75h15.73q.4 0 .675-.22t.355-.61l1.68-8.44q.05-.35-.15-.54T19.23 7H16V5.53q0-.15-.195-.34T15.34 5h-3.76q-.23 0-.45.145t-.32.295l-.1.14L10 7H5.59q-.25 0-.45.135T4.9 7.5q-1.59 6.7-1.72 7.33-.17.92-.51 1.42zM15.38 7H11q.02-.04.065-.11t.175-.24.255-.3.305-.24.33-.11h2.29q.2 0 .37.105t.275.25.18.29.105.255z"/></svg>