<svg xmlns="http://www.w3.org/2000/svg" width="20" height="20" viewBox="0 0 20 20"><path d="M10 2q.12.08.345.215t.96.48 1.505.61 1.92.48T17 4q0 2.24-.385 4.23t-1.005 3.365-1.365 2.525-1.49 1.845-1.365 1.175-1.01.67L10 18q-.09-.04-.245-.115T9.12 17.5t-.94-.685-1.09-1.035-1.175-1.415-1.095-1.85-.94-2.31-.635-2.825T3 4q1.12 0 2.255-.205t1.95-.5 1.47-.59.985-.505zm0 8h5q.04-.04.11-.13t.24-.48.3-.9.24-1.44T16 5q-.2-.04-.545-.115t-1.26-.3-1.67-.45-1.5-.54T10 3v7H5q.28 1.12.9 2.255t1.3 1.95 1.32 1.47 1.06.985L10 17v-7z"/></svg>