<svg xmlns="http://www.w3.org/2000/svg" width="20" height="20" viewBox="0 0 20 20"><path d="M1 10q.61.43 1.5.43T4 10q1-.74 1-2 0 1.27 1 2 .61.43 1.5.43T9 10q1-.74 1-2 0 1.27 1 2 .61.43 1.51.43.88 0 1.49-.43 1-.74 1-2 0 1.27 1 2 .61.43 1.5.43T19 10q1-.73 1-2V7l-3-7H4L0 7v1q0 1.27 1 2zm2 8.99h5v-5h4v5h5v-7q-.52-.07-1-.43-.38-.27-.555-.43t-.31-.445T15 10q0 .3-.06.52t-.22.41-.295.305-.425.325q-.58.42-1.49.44-.91 0-1.51-.44-.38-.27-.555-.43t-.31-.445T10 10q0 .3-.06.52t-.22.41-.295.305T9 11.56q-.58.42-1.5.44-.9 0-1.5-.44-.38-.27-.555-.43t-.31-.45T5 9.99q0 .31-.06.53t-.22.41-.295.305T4 11.56q-.49.36-1 .44v6.99z" fill="#444"/></svg>