<svg xmlns="http://www.w3.org/2000/svg" width="20" height="20" viewBox="0 0 20 20"><path d="M11 7H9.49q-.46 0-.895.195T7.9 7.7L7 5H4.13l-2.39 7h1.69l.74-2H7v4H2q-.82 0-1.41-.59T0 12V5q0-.82.59-1.41T2 3h7q.82 0 1.41.59T11 5v2zM6.51 9H4.49l1-2.93zM10 8h7q.82 0 1.41.59T19 10v7q0 .82-.59 1.41T17 19h-7q-.82 0-1.41-.59T8 17v-7q0-.82.59-1.41T10 8zm7.25 5v-1.08h-3.17V9.75h-1.16v2.17H9.75V13h1.28q.09.66.42 1.36t.86 1.26q-.64.26-1.315.44t-.995.18l.05.26q.05.26.105.62t.045.58q.62 0 1.54-.325t1.74-.825q.83.5 1.77.825t1.57.325q-.01-.14.01-.335t.05-.385.06-.355.06-.275l.02-.11q-.33 0-1.03-.185t-1.35-.445q.51-.56.835-1.26T15.89 13h1.36zm-3.81 1.93q-.76-.7-1.01-1.93h2.09q-.26 1.24-1 1.93l-.04.03q-.03-.02-.04-.03z"/></svg>