<svg xmlns="http://www.w3.org/2000/svg" width="20" height="20" viewBox="0 0 20 20"><path d="M19 10q0-1.83-.715-3.495t-1.92-2.87-2.87-1.92T10 1t-3.495.715-2.87 1.92-1.92 2.87T1 10t.715 3.495 1.92 2.87 2.87 1.92T10 19t3.495-.715 2.87-1.92 1.92-2.87T19 10zm-9-7.4q.62 0 1.06.44t.44 1.06-.44 1.065T10 5.61t-1.06-.445T8.5 4.1t.44-1.06T10 2.6zM3.4 7.36q0-.29 1.65-.48t3.3-.24L10 6.6q6.6.11 6.6.76 0 .29-1.12.64t-2.24.56l-1.11.2.59 3.06q.91 5.15.47 5.32-.17.07-.565-.44t-.83-1.285-.845-1.56-.68-1.345l-.27-.56-.96 1.93q-1.77 3.42-2.22 3.26-.17-.14-.13-.965t.23-2.09.405-2.445.385-2.03l.17-.85Q3.4 8.01 3.4 7.36z"/></svg>