<svg xmlns="http://www.w3.org/2000/svg" width="32" height="32" viewBox="0 0 32 32"><path d="M19.296 9.6l-.336-.32q-.416-.432-.512-.752t.056-.608.584-.72l4.352-4.4q.176-.176.44-.456t.376-.392.304-.28.296-.192.272-.056.312.048.336.208.432.352l.336.32zm.848.72l7.04-7.04q.336.448.664.952T28.6 5.48 29.32 7t.496 1.6.16 1.664-.344 1.56q-.528 1.216-.944 1.88t-1.112 1.488-1.144 1.432q-3.616 4.112-9.6 9.712-.656.464-1.44 1.16t-1.464 1.128-1.896.912q-.688.272-1.52.288t-1.656-.2-1.608-.504-1.552-.712-1.28-.728-.992-.64l7.04-7.04 1.888 2.592q.256.368.776.264t1.056-.456 1.048-.864q.368-.368 1.48-1.488t1.888-1.896 1.672-1.704 1.36-1.424q.512-.512.856-1.04t.464-1.048-.264-.792zM2.512 26.4l-.336-.336q-.24-.256-.376-.448t-.152-.392-.016-.312.176-.336.272-.328.432-.424.496-.48l4.384-4.352q.656-.624 1.016-.68t1.016.504l.32.336z"/></svg>