<svg xmlns="http://www.w3.org/2000/svg" width="32" height="32" viewBox="0 0 32 32"><path d="M1.6 16q.976.688 2.4.688T6.4 16Q8 14.816 8 12.8q0 2.032 1.6 3.2.976.688 2.4.688T14.4 16q1.6-1.184 1.6-3.2 0 2.032 1.6 3.2.976.688 2.416.688 1.408 0 2.384-.688 1.6-1.184 1.6-3.2 0 2.032 1.6 3.2.976.688 2.4.688T30.4 16q1.6-1.168 1.6-3.2v-1.6L27.2 0H6.4L0 11.2v1.6q0 2.032 1.6 3.2zm3.2 14.384h8v-8h6.4v8h8v-11.2q-.832-.112-1.6-.688-.608-.432-.888-.688t-.496-.712T24 16q0 .48-.096.832t-.352.656-.472.488-.68.52q-.928.672-2.384.704-1.456 0-2.416-.704-.608-.432-.888-.688t-.496-.712T16 16q0 .48-.096.832t-.352.656-.472.488-.68.52q-.928.672-2.4.704-1.44 0-2.4-.704-.608-.432-.888-.688t-.496-.72T8 15.984q0 .496-.096.848t-.352.656-.472.488-.68.52q-.784.576-1.6.704v11.184z"/></svg>