<svg xmlns="http://www.w3.org/2000/svg" width="32" height="32" viewBox="0 0 32 32"><path d="M13.728 3.824q.752 0 1.296.224 1.408.624 2.056 2.344t.664 4.008q.896-1.232 2.496-2.448t2.96-1.216q.656 0 1.28.152t1.304.552 1.248 1.024 1.056 1.64.76 2.312q-2.608-1.504-5.84-1.504-3.168 0-5.264 1.424.928-.256 2.128-.256 1.776 0 3.32.552t2.12 1.544q.544.928.616 2.248t-.408 2.56-1.424 1.816q-.112-1.664-.888-3.184t-2.032-2.464-2.632-.944q-1.072 0-2.128.608-1.744 1.056-2.944 3.432t-1.736 5.432-.536 6.72h-8q0-2.56.744-5.008t1.984-4.376 2.84-3.552 3.312-2.696 3.408-1.632q-1.488-.24-2.912-.24Q7.44 12.896 3.2 16q.448-1.712 1.248-3.008t1.824-2.056 2.136-1.128 2.296-.368q1.488 0 2.848.552t2.272 1.512q-.384-1.28-1.096-2.216t-1.624-1.424-1.848-.712-1.96-.224q-1.808 0-3.28.56Q7.072 6 9.456 4.912t4.272-1.088zM20.8 18.4q0-.992-.704-1.696T18.4 16t-1.696.704T16 18.4t.704 1.696 1.696.704 1.696-.704.704-1.696z"/></svg>