<svg xmlns="http://www.w3.org/2000/svg" width="32" height="32" viewBox="0 0 32 32"><path d="M26.256 15.344q.944.944.944 2.256v11.2q0 1.312-.944 2.256T24 32H8q-1.312 0-2.256-.944T4.8 28.8V17.6q0-1.312.944-2.256T8 14.4h11.2V9.6q0-1.312-.944-2.256T16 6.4t-2.256.944T12.8 9.6v1.6H8V9.6q0-2.176 1.072-4.016t2.912-2.912T16 1.6t4.016 1.072 2.912 2.912q.576.976.824 2.2T24 11.2v3.2q1.312 0 2.256.944zm-7.584 7.6q.528-.768.528-1.744 0-1.328-.944-2.272Q17.296 18 16 18t-2.256.928q-.944.944-.944 2.272 0 .976.528 1.744.528.8 1.392 1.184V27.6h2.56v-3.472q.864-.384 1.392-1.184z"/></svg>