<svg xmlns="http://www.w3.org/2000/svg" width="32" height="32" viewBox="0 0 32 32"><path d="M30.4 16q0-2.928-1.144-5.592t-3.072-4.592-4.592-3.072T16 1.6t-5.592 1.144-4.592 3.072-3.072 4.592T1.6 16t1.144 5.592 3.072 4.592 4.592 3.072T16 30.4t5.592-1.144 4.592-3.072 3.072-4.592T30.4 16zm-17.6.16q-6.048-.624-8.768-3.664 1.184-3.84 4.344-6.336t7.256-2.672q-.528.88-.896 2.016t-.512 2.384.192 2.472 1.168 2.04q-.56.08-1.104-.096t-.936-.48-.816-.64-.728-.576-.688-.28-.704.232q-1.408 1.104-.672 2.4.8 1.408 3.648 2.304.992.32 2.144.528 1.552.272 2.632.648t1.704.792.96 1 .432 1.136.08 1.352q-.096 4.768-6.496 7.52.032-1.376-.184-2.448t-.608-1.744-.88-1.176-1.016-.832-1-.592-.864-.584-.568-.688q.16-.672.296-1.08t.44-.984.832-1.056 1.312-.896zm13.584-6.912q.496.768.872 1.56t.616 1.48.368 1.424.184 1.296.024 1.208-.072 1.056-.16.936-.184.744-.192.6l-.112.384q-.336-.816-.832-1.528t-.968-1.192-.92-.928-.808-.96-.52-1.056q-.624-2.192 2.704-5.024z"/></svg>