<svg xmlns="http://www.w3.org/2000/svg" width="20" height="20" viewBox="0 0 20 20"><path d="M2 7h4l5-4v14l-5-4H2V7zm12.69-2.46q.08.03.225.1t.48.29.655.495.685.73.635.985.45 1.28T18 10t-.18 1.58-.45 1.28-.635.985-.685.73-.655.495-.48.29-.225.1q-.08.04-.19.04-.35 0-.46-.31-.08-.19 0-.38t.27-.27q.1-.05.19-.09t.385-.235.535-.415.55-.605.52-.82.36-1.06T17 10q0-.96-.285-1.78t-.65-1.295-.8-.84-.655-.48-.3-.145q-.19-.08-.27-.27t0-.38.27-.27.38 0zM16 10q0 .7-.235 1.315t-.5.96-.685.655-.55.375-.34.155l-.01.01q-.09.03-.18.03-.34 0-.47-.32-.07-.19.015-.38t.275-.27q.06-.02.205-.09t.415-.275.495-.475.395-.72T15 10t-.17-.97-.395-.72-.495-.475-.415-.275-.205-.09q-.19-.08-.275-.27t-.015-.38q.08-.19.27-.275t.38-.015q1.45.64 2.02 1.95.3.7.3 1.52z" fill="#444"/></svg>