<svg xmlns="http://www.w3.org/2000/svg" width="20" height="20" viewBox="0 0 20 20"><path d="M19 16V3q0-.41-.295-.705T18 2H3q-.41 0-.705.295T2 3v13q0 .41.295.705T3 17h15q.41 0 .705-.295T19 16zM4 4h13v4H4V4zm1 1v2h3V5H5zm4 0v2h3V5H9zm4 0v2h3V5h-3zm-8.5 5q.21 0 .355.145T5 10.5t-.145.355T4.5 11t-.355-.145T4 10.5t.145-.355T4.5 10zM6 10h4v1H6v-1zm6 0h5v5h-5v-5zm-7.5 2q.21 0 .355.145T5 12.5t-.145.355T4.5 13t-.355-.145T4 12.5t.145-.355T4.5 12zM6 12h4v1H6v-1zm7 0v2h3v-2h-3zm-8.5 2q.21 0 .355.145T5 14.5t-.145.355T4.5 15t-.355-.145T4 14.5t.145-.355T4.5 14zM6 14h4v1H6v-1z"/></svg>