<svg xmlns="http://www.w3.org/2000/svg" width="20" height="20" viewBox="0 0 20 20"><path d="M20 10q0-1.63-.505-3.155t-1.43-2.755-2.155-2.155-2.755-1.43T10 0 6.845.505 4.09 1.935 1.935 4.09.505 6.845 0 10t.505 3.155 1.43 2.755 2.155 2.155 2.755 1.43T10 20t3.155-.505 2.755-1.43 2.155-2.155 1.43-2.755T20 10zM10 1.01q1.83 0 3.495.71t2.87 1.915 1.915 2.87.71 3.495-.71 3.495-1.915 2.87-2.87 1.915-3.495.71-3.495-.71-2.87-1.915-1.915-2.87T1.01 10t.71-3.495 1.915-2.87 2.87-1.915T10 1.01zM8.01 14.82L4.96 6.61l1.05-.08q.2-.02.27-.275t-.025-.49-.305-.225q-1.29.1-2.13.1-.33 0-.52-.01Q4.4 3.97 6.17 3T10 2.03q1.54 0 2.935.55t2.475 1.54q-.52-.07-.985.305T13.96 5.54q0 .29.115.615t.225.525.37.61l.08.13q.5.87.5 2.21 0 .6-.315 1.72t-.635 1.94l-.32.82-2.71-7.5q.21-.01.4-.05t.27-.08l.08-.03q.2-.02.275-.295t-.025-.535-.3-.25q-1.3.11-2.14.11-.35 0-.875-.03L8.08 5.4l-.36-.03q-.2-.01-.3.255t-.025.54.275.285l.84.08 1.12 3.04zm6.02 2.15L16.64 10q.03-.07.07-.195t.15-.535.155-.82.08-1.05-.065-1.21q.94 1.7.94 3.81 0 2.19-1.065 4.05t-2.875 2.92zM2.68 6.77L6.5 17.25q-2.02-.99-3.245-2.945T2.03 10q0-1.79.65-3.23zm7.45 4.53l2.29 6.25q-1.17.42-2.42.42-1.03 0-2.06-.3z"/></svg>