<svg id="Layer_1" data-name="Layer 1" xmlns="http://www.w3.org/2000/svg" viewBox="0 0 20 20"><title>bb-logo-bbpress</title><path d="M10,17.5a7.56,7.56,0,0,1-5.3-2.2c-.3-.4-.7-.8-1-1.2A8.19,8.19,0,0,1,2.5,10,7.55,7.55,0,0,1,10,2.5,7.55,7.55,0,0,1,17.5,10,7.55,7.55,0,0,1,10,17.5ZM10,2a8,8,0,1,0,8,8A8,8,0,0,0,10,2Zm3.8,10.6c.3-1.3,0-2.3-1.1-2.3a1.9,1.9,0,0,0-1.8,1.5l-.4,1.7c-.2,1.1.4,1.6,1.1,1.6A2.9,2.9,0,0,0,13.8,12.6ZM10,3.3A6.8,6.8,0,0,0,4.9,5.6c.6-.1,1.4-.2,1.8-.3.2-.1.2.1.2.2s-1,4.8-1,4.8a4,4,0,0,1,1.8-.7,2.32,2.32,0,0,1,1.9.9l.5-2.4c.4-1.6.4-1.9-.4-1.9a.3.3,0,0,1,0-.6c.6-.1,1.8-.2,2.3-.3.2-.1.2.1.2.2s-1,4.8-1,4.8a3.16,3.16,0,0,1,1.9-.7c1.7,0,2.5,1.3,2.1,3a3.87,3.87,0,0,1-3.8,3,2.24,2.24,0,0,1-2.3-1.4,3.82,3.82,0,0,1-2.8,1.4A7,7,0,0,0,10,16.7,6.7,6.7,0,0,0,10,3.3ZM4.5,6.2h0A6.36,6.36,0,0,0,3.3,10a6.71,6.71,0,0,0,.6,2.8l1-4.6C5.2,6.5,5.3,6.2,4.5,6.2Zm4,6.4c.3-1.3,0-2.3-1.1-2.3a1.9,1.9,0,0,0-1.8,1.5l-.3,1.7c-.3,1,.3,1.5,1,1.5C7.4,15,8.2,13.9,8.5,12.6Z"/></svg>